<svg xmlns="http://www.w3.org/2000/svg" width="917.29" height="150.012" viewBox="0 0 917.29 150.012"><g transform="translate(-1591 17083.506)"><g transform="translate(6124.025 1887.808)"><g transform="translate(996.643 712.832)"><path d="M8.248,0H25.8V-29.208H41.424a29.512,29.512,0,0,0,21.549-8.651,28.6,28.6,0,0,0,8.775-21.177,28.7,28.7,0,0,0-8.775-21.208,29.457,29.457,0,0,0-21.549-8.682H8.248ZM26.076-46.062a1.749,1.749,0,0,1-.279-1.055V-71.3a1.383,1.383,0,0,1,.306-.941,1.665,1.665,0,0,1,1.023-.25h14.3a12.334,12.334,0,0,1,9.3,3.814,13.367,13.367,0,0,1,3.659,9.643,13.332,13.332,0,0,1-3.69,9.612,12.311,12.311,0,0,1-9.271,3.845H27.076a1.846,1.846,0,0,1-1-.485ZM82.414,0H98.785V-92.708H82.414Zm28.029-31.75q0,14.077,9.054,23.813T141.263,1.8q13.208,0,20.712-9.3V0h16.371V-63.5H161.975V-56q-7.5-9.3-20.712-9.3-12.712,0-21.766,9.736T110.443-31.75Zm16.371,0q0-7.937,4.93-12.929A16.9,16.9,0,0,1,144.3-49.671a17.181,17.181,0,0,1,12.681,4.992,17.494,17.494,0,0,1,4.992,12.929,17.494,17.494,0,0,1-4.992,12.929A17.181,17.181,0,0,1,144.3-13.829a16.9,16.9,0,0,1-12.557-4.992Q126.814-23.813,126.814-31.75ZM186.1-63.5,212.142-2.046Q209.848,4.465,206,7.317q-3.783,2.853-10.232,2.853h-.248V25.425q1.178.062,2.356.062,10.6,0,17.983-5.643,8.251-6.2,13.15-19.844l23.13-63.5H234.59L220.514-20.836,204.019-63.5ZM259.891,0h16.371V-92.708H259.891Zm31.316,0h16.371V-63.5H291.207Zm26.479-13.333A24.657,24.657,0,0,0,327.98-2.077,32.627,32.627,0,0,0,344.351,1.8,35.256,35.256,0,0,0,357.032-.37,20.735,20.735,0,0,0,366.3-7.255a18.061,18.061,0,0,0,3.6-11.286,19.048,19.048,0,0,0-1.4-7.5,13.942,13.942,0,0,0-3.721-5.271,28.6,28.6,0,0,0-5.271-3.535,29.866,29.866,0,0,0-5.984-2.387q-3.039-.837-5.984-1.705t-5.271-1.612a10.217,10.217,0,0,1-3.721-1.984,3.788,3.788,0,0,1-1.4-2.915A4.361,4.361,0,0,1,339.2-49.3a9.327,9.327,0,0,1,5.271-1.364,10.448,10.448,0,0,1,10.17,6.449L368.6-51.842a25.211,25.211,0,0,0-9.984-9.984A28.886,28.886,0,0,0,344.475-65.3q-10.232,0-17.177,5.426t-6.945,14.79a16.963,16.963,0,0,0,1.8,7.969,14.842,14.842,0,0,0,4.713,5.457,33.69,33.69,0,0,0,6.387,3.442,56.544,56.544,0,0,0,6.976,2.356q3.5.93,6.418,1.86a16.149,16.149,0,0,1,4.713,2.263,3.9,3.9,0,0,1,1.8,3.194,4.444,4.444,0,0,1-2.387,4.062,12.689,12.689,0,0,1-6.418,1.4,13.743,13.743,0,0,1-7.875-2.139,11.714,11.714,0,0,1-4.527-6.108ZM373.062-47.75H384.1v26.417q0,8.806,2.884,13.767t9.643,6.883A36.945,36.945,0,0,0,406.611.5a76.259,76.259,0,0,0,8.248-.5V-14.883q-2.915.186-5.209.186-1.426,0-2.667-.062a6.969,6.969,0,0,1-4.837-1.736,6.3,6.3,0,0,1-1.674-4.837V-47.749h14.387V-63.5H400.472V-81.3L384.1-76.336V-63.5H373.063ZM453.926-77.7H480.1V0h11.658V-77.7h26.293V-88.925h-64.12Zm59.531,45.95a33.287,33.287,0,0,0,4.434,16.929A32.269,32.269,0,0,0,530.014-2.729a33.234,33.234,0,0,0,16.8,4.4,33.4,33.4,0,0,0,16.836-4.4,32.661,32.661,0,0,0,12.216-12.092,32.932,32.932,0,0,0,4.5-16.929,32.931,32.931,0,0,0-4.5-16.929,32.661,32.661,0,0,0-12.216-12.092,33.4,33.4,0,0,0-16.836-4.4,33.234,33.234,0,0,0-16.8,4.4,32.268,32.268,0,0,0-12.123,12.092,33.288,33.288,0,0,0-4.434,16.929Zm11.038,0a22.007,22.007,0,0,1,6.449-16.123,21.47,21.47,0,0,1,15.875-6.511,21.72,21.72,0,0,1,16.03,6.511,21.952,21.952,0,0,1,6.48,16.123,21.952,21.952,0,0,1-6.48,16.123,21.72,21.72,0,0,1-16.03,6.511,21.47,21.47,0,0,1-15.875-6.511A22.007,22.007,0,0,1,524.5-31.75Zm65.36,0a33.288,33.288,0,0,0,4.434,16.929A32.269,32.269,0,0,0,606.413-2.729a33.234,33.234,0,0,0,16.8,4.4,33.4,33.4,0,0,0,16.836-4.4A32.661,32.661,0,0,0,652.27-14.821a32.932,32.932,0,0,0,4.5-16.929,32.931,32.931,0,0,0-4.5-16.929,32.66,32.66,0,0,0-12.216-12.092,33.4,33.4,0,0,0-16.836-4.4,33.234,33.234,0,0,0-16.805,4.4A32.268,32.268,0,0,0,594.29-48.679a33.288,33.288,0,0,0-4.435,16.929Zm11.038,0a22.007,22.007,0,0,1,6.449-16.123,21.47,21.47,0,0,1,15.875-6.511,21.72,21.72,0,0,1,16.03,6.511,21.952,21.952,0,0,1,6.48,16.123,21.952,21.952,0,0,1-6.48,16.123,21.72,21.72,0,0,1-16.03,6.511,21.47,21.47,0,0,1-15.875-6.511,22.007,22.007,0,0,1-6.448-16.123ZM669.789,0h11.038V-92.708H669.789Zm23.875-13.208A23.063,23.063,0,0,0,703.09-2.387,29.5,29.5,0,0,0,718.9,1.674q10.356,0,17.053-5.209a16.71,16.71,0,0,0,6.7-13.891,17.12,17.12,0,0,0-1.519-7.379,13.406,13.406,0,0,0-4.031-5.116,31.717,31.717,0,0,0-5.7-3.379,34.9,34.9,0,0,0-6.511-2.294q-3.318-.806-6.511-1.829t-5.705-2.015a10.077,10.077,0,0,1-4.031-2.76,6.213,6.213,0,0,1-1.519-4.186,7.128,7.128,0,0,1,3.318-6.263,13.937,13.937,0,0,1,7.969-2.232,16.73,16.73,0,0,1,8.155,2.015,12.1,12.1,0,0,1,5.426,6.108l9.3-5.209a22.816,22.816,0,0,0-9.116-9.7,26.844,26.844,0,0,0-13.767-3.5q-9.674,0-16.061,5.333A16.982,16.982,0,0,0,695.958-46.2a16.56,16.56,0,0,0,1.519,7.255,13.239,13.239,0,0,0,4.031,5.023,32.9,32.9,0,0,0,5.705,3.349,34.9,34.9,0,0,0,6.511,2.294q3.318.806,6.511,1.829t5.705,2.05a10.345,10.345,0,0,1,4.031,2.791,6.213,6.213,0,0,1,1.519,4.186,7.126,7.126,0,0,1-3.535,6.542A17.265,17.265,0,0,1,718.9-8.744a18.247,18.247,0,0,1-10.015-2.667,13.528,13.528,0,0,1-5.736-7.255Z" transform="translate(-5355.038 -19559.973)" fill="#140c22"/><path d="M289.285-81.173a9.658,9.658,0,0,0,2.977,7.069,9.658,9.658,0,0,0,7.069,2.977,9.831,9.831,0,0,0,7.162-2.977,9.609,9.609,0,0,0,3.008-7.069,9.812,9.812,0,0,0-3.008-7.131,9.731,9.731,0,0,0-7.162-3.039,9.562,9.562,0,0,0-7.069,3.039A9.863,9.863,0,0,0,289.285-81.173Z" transform="translate(-5355.038 -19559.973)" fill="#762cf8"/></g></g><g transform="translate(-977 1125.508)"><rect width="33" height="33" rx="10" transform="translate(2632 -18176) rotate(-90)" fill="#762cf8"/><rect width="27" height="19" rx="9.5" transform="translate(2646 -18182) rotate(-90)" fill="#762cf8"/><g transform="translate(2584 -18193)" fill="none"><path d="M64.5,129a64.2,64.2,0,0,1-36.063-11.015A64.687,64.687,0,0,1,5.069,89.606a64.416,64.416,0,0,1,5.947-61.169A64.687,64.687,0,0,1,39.394,5.069,64.461,64.461,0,0,1,97.971,9.353a64.8,64.8,0,0,1,23.272,24.455H111a8.5,8.5,0,0,0,0,17h16.544A64.915,64.915,0,0,1,129,64.5a64.2,64.2,0,0,1-11.015,36.062,64.687,64.687,0,0,1-28.378,23.368A64.1,64.1,0,0,1,64.5,129Z" stroke="none"/><path d="M 64.50032043457031 111.9997253417969 C 70.92015838623047 111.9997253417969 77.13892364501953 110.7461853027344 82.98395538330078 108.2739562988281 C 85.794921875 107.0850219726562 88.50732421875 105.6126251220703 91.04575347900391 103.8976516723633 C 93.56468963623047 102.1958847045898 95.93382263183594 100.2410888671875 98.0875244140625 98.08735656738281 C 100.2410888671875 95.93382263183594 102.1958847045898 93.56468963623047 103.8976516723633 91.04579162597656 C 105.6126251220703 88.50732421875 107.0850219726562 85.794921875 108.2739562988281 82.98395538330078 C 110.3191604614258 78.14852905273438 111.5302810668945 73.05783843994141 111.8876647949219 67.80862426757812 L 110.9996871948242 67.80862426757812 C 96.93918609619141 67.80862426757812 85.5001220703125 56.36955642700195 85.5001220703125 42.30902099609375 C 85.5001220703125 35.91959381103516 87.86165618896484 30.0720157623291 91.75831604003906 25.59258842468262 C 90.90496063232422 24.99337577819824 90.03064727783203 24.42120933532715 89.13685607910156 23.87755584716797 C 85.50489044189453 21.66838836669922 81.59788513183594 19.96108818054199 77.52439117431641 18.80315589904785 C 73.31528472900391 17.60668754577637 68.93335723876953 17.00002098083496 64.50032043457031 17.00002098083496 C 58.0801887512207 17.00002098083496 51.86118698120117 18.25355529785156 46.01602172851562 20.72582244873047 C 43.20505523681641 21.91475486755371 40.49265670776367 23.38715553283691 37.95405578613281 25.10222244262695 C 35.43525314331055 26.80385589599609 33.06612014770508 28.7586555480957 30.91232109069824 30.91248893737793 C 28.7586555480957 33.06612014770508 26.80385589599609 35.43525314331055 25.10212135314941 37.95415496826172 C 23.38715553283691 40.49265670776367 21.91475486755371 43.20505523681641 20.72582244873047 46.01605606079102 C 18.25355529785156 51.86118698120117 17.00002098083496 58.0801887512207 17.00002098083496 64.50032043457031 C 17.00002098083496 70.92018890380859 18.25355529785156 77.13898468017578 20.72578811645508 82.98395538330078 C 21.91472244262695 85.79489135742188 23.38712120056152 88.50728607177734 25.1021556854248 91.04579162597656 C 26.8038215637207 93.56462097167969 28.75862121582031 95.93372344970703 30.91238784790039 98.08745574951172 C 33.06605529785156 100.2410888671875 35.43518829345703 102.1958847045898 37.95405578613281 103.897590637207 C 40.49252319335938 105.6125183105469 43.20498657226562 107.0849533081055 46.01598739624023 108.2738876342773 C 51.86122131347656 110.7461853027344 58.08025360107422 111.9997253417969 64.50032043457031 111.9997253417969 M 64.50032043457031 128.9997253417969 C 55.79275512695312 128.9997253417969 47.34568786621094 127.2943572998047 39.39372253417969 123.931022644043 C 35.57175445556641 122.314453125 31.88552093505859 120.3136901855469 28.43742179870605 117.9842224121094 C 25.02205467224121 115.676887512207 21.81035423278809 113.0270233154297 18.89158821105957 110.1082534790039 C 15.97285461425781 107.1895904541016 13.32295513153076 103.9779205322266 11.0155553817749 100.5625228881836 C 8.686055183410645 97.11445617675781 6.68525505065918 93.42825317382812 5.068721771240234 89.60635375976562 C 1.705355048179626 81.65455627441406 2.170817060687114e-05 73.20765686035156 2.170817060687114e-05 64.50032043457031 C 2.170817060687114e-05 55.79275512695312 1.705355048179626 47.34568786621094 5.068721771240234 39.39372253417969 C 6.68525505065918 35.57175445556641 8.686055183410645 31.88552093505859 11.0155553817749 28.43742179870605 C 13.32292175292969 25.02202224731445 15.97282123565674 21.81032180786133 18.89158821105957 18.89158821105957 C 21.81032180786133 15.97282123565674 25.02202224731445 13.32292175292969 28.43742179870605 11.0155553817749 C 31.88552093505859 8.686055183410645 35.57175445556641 6.68525505065918 39.39372253417969 5.068721771240234 C 47.34568786621094 1.705355048179626 55.79275512695312 2.170817060687114e-05 64.50032043457031 2.170817060687114e-05 C 70.50555419921875 2.170817060687114e-05 76.45135498046875 0.8246550559997559 82.17265319824219 2.450988292694092 C 87.71732330322266 4.027121543884277 93.03275299072266 6.349421501159668 97.97135162353516 9.353388786315918 C 107.7481231689453 15.30012130737305 115.7955551147461 23.75655555725098 121.2436904907227 33.80852127075195 L 110.9996871948242 33.80852127075195 C 106.3130187988281 33.80852127075195 102.5001220703125 37.62182235717773 102.5001220703125 42.30902099609375 C 102.5001220703125 46.99571990966797 106.3130187988281 50.80862045288086 110.9996871948242 50.80862045288086 L 127.5435180664062 50.80862045288086 C 128.5100860595703 55.28002166748047 128.9997253417969 59.88628768920898 128.9997253417969 64.50032043457031 C 128.9997253417969 73.20765686035156 127.2943572998047 81.65455627441406 123.931022644043 89.60635375976562 C 122.3144912719727 93.42825317382812 120.313720703125 97.11441802978516 117.9842224121094 100.5625228881836 C 115.6768569946289 103.9778518676758 113.0270233154297 107.1895217895508 110.1082534790039 110.1082534790039 C 107.1895217895508 113.0270233154297 103.9778518676758 115.6768569946289 100.5625228881836 117.9842224121094 C 97.11441802978516 120.313720703125 93.42825317382812 122.3144912719727 89.60635375976562 123.931022644043 C 81.65455627441406 127.2943572998047 73.20765686035156 128.9997253417969 64.50032043457031 128.9997253417969 Z" stroke="none" fill="#140c22"/></g><ellipse cx="19.5" cy="15.5" rx="19.5" ry="15.5" transform="translate(2618 -18144)" fill="#762cf8"/><rect width="33" height="33" rx="10" transform="translate(2568 -18111) rotate(-90)" fill="#140c22"/><rect width="33" height="33" rx="10" transform="translate(2602.334 -18150.33) rotate(-135)" fill="#140c22"/><rect width="33" height="33" rx="10" transform="translate(2626.669 -18082.336) rotate(135)" fill="#140c22"/><path d="M-2.687,9.7-4-7.877V-16.5s6.284,7.23,9.7,3.879,0-13.389,0-13.389l14.214.049a2.419,2.419,0,0,1,.606,1.783A270.458,270.458,0,0,0,17.377,7.2c-.88,19.92,3.482,45.539,3.482,45.539L1.719,54.822Z" transform="translate(2636 -18183)" fill="#762cf8"/><path d="M0,0H7.683L7.215,4.1A5.83,5.83,0,0,0,4.494,2.7a4.135,4.135,0,0,0-2.58.9Z" transform="translate(2650.344 -18190.066) rotate(-45)" fill="#762cf8"/></g></g></svg>