<svg xmlns="http://www.w3.org/2000/svg" width="68.16" height="68.16"><defs><linearGradient id="a" x1=".5" x2="1.05" y2=".86" gradientUnits="objectBoundingBox"><stop offset="0" stop-color="#762cf8"/><stop offset="1" stop-color="#f78764"/></linearGradient></defs><path d="M62.62.23L20.02 12.8a4.26 4.26 0 00-2.98 4.06v34.8a18.5 18.5 0 00-4.26-.52C5.72 51.15 0 54.96 0 59.67s5.72 8.51 12.78 8.51 12.78-3.81 12.78-8.52v-31.1l34.08-9.99v24.58a18.42 18.42 0 00-4.26-.52c-7.06 0-12.78 3.81-12.78 8.51s5.72 8.52 12.78 8.52 12.78-3.8 12.78-8.52V4.3A4.26 4.26 0 0062.62.23z" transform="translate(0 -.03)" fill="url(#a)"/></svg>